<svg version="1.1" xmlns="http://www.w3.org/2000/svg" viewBox="-333.2 -970.7 3092.563818359375 1362.9"><desc>Created with Snap</desc><defs></defs><g><rect x="-333.2" y="-970.7" width="3092.563818359375" height="1362.9" fill="#77b6ea" style=""></rect><g><g transform="matrix(0.5,0,0,-0.5,0,0)"><g transform="matrix(1,0,0,1,0,0)"><path d="M107 111Q114 180 119 242Q124 305 128 366Q133 428 138 491Q143 554 149 624Q152 661 155 703Q159 746 162 789Q165 833 168 876Q171 920 174 960Q180 1053 185 1147Q186 1153 186 1158Q186 1164 186 1169Q186 1283 74 1322L75 1327L276 1327Q287 1327 297 1310Q308 1294 317 1268Q327 1242 335 1210Q343 1179 349 1148Q356 1118 361 1092Q366 1067 369 1054Q381 1010 396 959Q411 909 427 856Q443 804 459 751Q476 698 491 649Q527 535 564 418Q620 608 668 767Q688 835 708 902Q728 970 744 1028Q761 1087 773 1130Q786 1174 791 1194Q797 1218 800 1241Q804 1265 812 1284Q821 1303 838 1315Q856 1327 891 1327L1034 1327L1035 1322Q943 1292 943 1195Q943 1190 943 1186Q943 1182 944 1177Q946 1151 949 1090Q953 1029 958 944Q964 860 971 758Q978 657 987 551Q996 445 1007 341Q1018 238 1031 149Q1039 95 1067 58Q1095 22 1146 5L1147 0L786 0L785 5Q836 22 854 61Q872 100 872 153Q869 234 866 308Q864 382 860 452Q857 522 852 589Q847 656 840 721L827 905Q807 825 777 735Q748 645 717 555Q686 465 658 380Q630 295 612 224Q605 200 598 174Q592 149 585 128Q579 107 571 94Q564 81 555 81Q546 81 538 94Q530 107 523 127Q516 148 509 173Q503 199 496 224Q475 296 450 378Q425 460 399 545Q373 631 346 717Q320 804 296 885Q287 690 275 497Q263 305 256 117Q255 85 253 51Q252 17 245 -15Q239 -47 226 -75Q213 -103 188 -125Q163 -146 124 -158Q85 -170 28 -170L-52 -44L-49 -40Q-27 -45 -9 -49Q9 -52 23 -52Q44 -52 58 -45Q72 -37 81 -18Q91 1 96 32Q102 64 107 111Z" fill="#292929" style=""></path></g><g transform="matrix(1,0,0,1,1135,0)"><path d="M213 482Q213 281 253 179Q293 77 365 77Q438 77 474 179Q511 281 511 482Q511 683 474 784Q438 885 365 885Q293 885 253 784Q213 683 213 482ZM63 482Q63 605 86 700Q110 795 150 860Q191 925 246 958Q301 992 365 992Q426 992 480 958Q534 925 574 860Q614 795 637 700Q661 605 661 482Q661 359 637 264Q614 169 574 104Q534 39 480 5Q426 -29 365 -29Q301 -29 246 5Q191 39 150 104Q110 169 86 264Q63 359 63 482Z" fill="#292929" style=""></path></g><g transform="matrix(1,0,0,1,1859,0)"><g transform="matrix(2.8616,0,0,2.8616,-498.1651,1511.7)"><g transform="matrix(1,0,0,-1,0,0)">
<g>
	<circle cx="480.4" cy="265.4" r="9.7" fill="#292929" style=""></circle>
	<circle cx="449.9" cy="265.4" r="9.7" fill="#292929" style=""></circle>
	<ellipse transform="matrix(0.7071 -0.7071 0.7071 0.7071 -117.3425 247.5102)" cx="240.1" cy="265.4" rx="9.7" ry="9.7" fill="#292929" style=""></ellipse>
	<path d="M521.1,231.1l-39.34-46.32c-1.71-2.01-4.22-3.17-6.86-3.17H245.1c-2.64,0-5.15,1.16-6.86,3.17l-40,47.1
		c-0.01,0.01-0.02,0.03-0.03,0.04c-0.25,0.29-0.47,0.61-0.68,0.93c-0.04,0.07-0.08,0.14-0.13,0.21c-0.18,0.29-0.34,0.6-0.48,0.91
		c-0.02,0.04-0.04,0.09-0.06,0.13c-0.15,0.35-0.29,0.72-0.39,1.09c-0.02,0.07-0.03,0.13-0.05,0.2c-0.08,0.31-0.15,0.62-0.2,0.94
		c-0.01,0.09-0.03,0.17-0.04,0.26c-0.05,0.37-0.08,0.73-0.08,1.11v291.7c0,4.97,4.03,9,9,9H515c4.97,0,9-4.03,9-9V237.7
		C524,235.09,522.88,232.74,521.1,231.1z M249.26,199.6h221.47l24.71,29.1h-270.9L249.26,199.6z M506,520.4H214.1V246.7H506V520.4z" fill="#292929" style=""></path>
	<path d="M360,498.8c59.94,0,108.7-48.76,108.7-108.7c0-59.94-48.76-108.7-108.7-108.7s-108.7,48.76-108.7,108.7
		C251.3,450.04,300.06,498.8,360,498.8z M270.82,394.59c-0.44-0.56-0.93-1.05-1.46-1.48c-0.03-1-0.06-2-0.06-3.01
		c0-50.01,40.69-90.7,90.7-90.7c50.01,0,90.7,40.69,90.7,90.7c0,1.72-0.05,3.43-0.15,5.13c-5.47,6.58-14.65,10.5-24.75,10.5
		c-10.43,0-19.88-4.16-25.28-11.13c-1.65-2.13-4.06-3.3-6.54-3.46c-0.04,0-0.09-0.01-0.13-0.01c-0.16-0.01-0.32-0.01-0.48-0.01
		c-0.17,0-0.35,0-0.52,0.01c-0.03,0-0.06,0-0.09,0.01c-2.5,0.15-4.92,1.33-6.57,3.47c-5.4,6.97-14.85,11.13-25.28,11.13
		c-10.43,0-19.89-4.16-25.28-11.14c-0.04-0.05-0.08-0.09-0.12-0.14c-0.11-0.14-0.22-0.27-0.34-0.4c-0.1-0.11-0.2-0.21-0.3-0.31
		c-0.1-0.1-0.2-0.2-0.31-0.29c-0.13-0.12-0.26-0.23-0.4-0.34c-0.05-0.04-0.09-0.08-0.14-0.12c-0.05-0.04-0.1-0.06-0.14-0.1
		c-0.15-0.11-0.3-0.22-0.46-0.32c-0.1-0.07-0.2-0.13-0.3-0.19c-0.15-0.09-0.3-0.17-0.45-0.25c-0.12-0.06-0.24-0.12-0.36-0.18
		c-0.13-0.06-0.27-0.12-0.4-0.17c-0.14-0.06-0.29-0.11-0.43-0.16c-0.12-0.04-0.25-0.08-0.37-0.12c-0.16-0.05-0.32-0.09-0.47-0.13
		c-0.12-0.03-0.24-0.05-0.36-0.08c-0.16-0.03-0.32-0.06-0.48-0.09c-0.13-0.02-0.26-0.03-0.39-0.04c-0.15-0.02-0.31-0.03-0.46-0.04
		c-0.14-0.01-0.29-0.01-0.43-0.01c-0.14,0-0.28,0-0.42,0.01c-0.16,0.01-0.31,0.02-0.47,0.04c-0.13,0.01-0.25,0.02-0.38,0.04
		c-0.17,0.02-0.33,0.05-0.49,0.09c-0.12,0.02-0.24,0.05-0.36,0.08c-0.16,0.04-0.32,0.08-0.48,0.13c-0.12,0.04-0.25,0.07-0.37,0.12
		c-0.14,0.05-0.29,0.11-0.43,0.16c-0.14,0.06-0.27,0.11-0.41,0.18c-0.12,0.06-0.24,0.12-0.36,0.18c-0.15,0.08-0.31,0.16-0.46,0.25
		c-0.1,0.06-0.19,0.12-0.29,0.18c-0.16,0.1-0.32,0.21-0.47,0.33c-0.04,0.03-0.09,0.06-0.13,0.09c-0.05,0.04-0.09,0.08-0.13,0.11
		c-0.14,0.11-0.28,0.23-0.41,0.35c-0.1,0.09-0.2,0.19-0.3,0.29c-0.1,0.1-0.2,0.21-0.3,0.32c-0.12,0.13-0.23,0.26-0.34,0.39
		c-0.04,0.05-0.08,0.09-0.12,0.14c-5.4,6.97-14.85,11.14-25.28,11.14C285.67,405.72,276.22,401.56,270.82,394.59z M296.1,423.72
		C296.1,423.72,296.1,423.72,296.1,423.72c12.22,0,23.73-3.98,32.4-10.93c8.67,6.95,20.18,10.93,32.4,10.93
		c12.24,0,23.77-4,32.45-10.97c8.68,6.97,20.21,10.97,32.45,10.97c0,0,0,0,0,0c6.96,0,13.7-1.29,19.82-3.69
		c-12.4,35.35-46.09,60.76-85.62,60.76c-39.88,0-73.83-25.87-85.95-61.71C280.74,422.09,288.27,423.72,296.1,423.72z" fill="#292929" style=""></path>
</g>
<desc>Created with Snap</desc><defs></defs></g></g></g><g transform="matrix(1,0,0,1,2923.3274,0)"><path d="M159 0L160 4L172 9Q203 23 216 50Q229 78 227 114Q218 199 202 275Q186 352 169 432Q151 525 129 622Q108 720 80 832Q69 877 44 911Q20 945 -26 959L-27 963L288 963L289 959Q248 945 232 913Q217 881 222 836Q236 735 258 635Q280 536 300 433Q308 388 317 337Q327 287 337 231Q347 286 356 337Q366 388 374 433Q394 536 410 635Q427 735 441 836Q446 881 430 913Q415 945 374 959L375 963L695 963L695 959Q648 944 624 910Q600 877 589 832Q561 720 539 622Q517 525 500 432Q482 352 466 275Q450 199 441 114Q438 78 451 50Q464 23 495 9L509 4L510 0L159 0Z" fill="#292929" style=""></path></g><g transform="matrix(1,0,0,1,3591.3274,0)"><path d="M427 336L428 341L647 321Q647 231 621 165Q596 100 556 56Q517 13 469 -8Q421 -29 375 -29Q309 -29 252 5Q195 39 153 104Q111 169 87 264Q63 359 63 482Q63 605 87 700Q111 795 153 860Q195 925 252 959Q309 993 375 993Q430 993 476 963Q523 934 558 876Q593 819 614 733Q636 648 641 537L218 389Q231 225 276 150Q321 76 390 76Q423 76 445 88Q468 101 482 121Q497 142 503 167Q510 193 510 220Q510 252 489 283Q469 314 427 336ZM213 482L213 478Q242 489 285 506Q328 523 393 553Q430 570 457 587Q484 604 505 616Q495 755 462 821Q430 887 375 887Q298 887 255 785Q213 683 213 482Z" fill="#292929" style=""></path></g><g transform="matrix(1,0,0,1,4292.3274,0)"><path d="M276 856Q305 920 354 956Q403 992 457 992Q498 992 538 969Q578 947 612 899L505 724L502 726Q508 742 508 769Q508 788 504 809Q500 830 491 847Q483 865 470 876Q457 887 438 887Q414 887 388 868Q363 850 342 816Q321 782 307 733Q293 685 293 624Q293 493 293 365Q294 238 302 109Q307 30 375 5L375 0L50 0L50 5Q101 16 123 45Q146 75 149 113Q154 212 157 299Q160 387 160 471Q160 598 158 682Q156 766 142 816Q129 866 99 886Q70 907 15 907L15 912L286 992Q278 965 277 929Q276 894 276 856Z" fill="#292929" style=""></path></g></g></g></g></svg>